<?xml version="1.0" encoding="UTF-8" standalone="no"?>
<svg
   xmlns:dc="http://purl.org/dc/elements/1.1/"
   xmlns:cc="http://creativecommons.org/ns#"
   xmlns:rdf="http://www.w3.org/1999/02/22-rdf-syntax-ns#"
   xmlns:svg="http://www.w3.org/2000/svg"
   xmlns="http://www.w3.org/2000/svg"
   xmlns:sodipodi="http://sodipodi.sourceforge.net/DTD/sodipodi-0.dtd"
   xmlns:inkscape="http://www.inkscape.org/namespaces/inkscape"
   version="1.0"
   width="127.9675pt"
   height="106.53146pt"
   viewBox="0 0 127.9675 106.53146"
   preserveAspectRatio="xMidYMid meet"
   id="svg3725"
   sodipodi:docname="Logo.svg"
   inkscape:version="0.92.2 (5c3e80d, 2017-08-06)">
  <defs
     id="defs3729" />
  <sodipodi:namedview
     pagecolor="#ffffff"
     bordercolor="#666666"
     borderopacity="1"
     objecttolerance="10"
     gridtolerance="10"
     guidetolerance="10"
     inkscape:pageopacity="0"
     inkscape:pageshadow="2"
     inkscape:window-width="1920"
     inkscape:window-height="1001"
     id="namedview3727"
     showgrid="false"
     inkscape:zoom="1.7854446"
     inkscape:cx="129.26027"
     inkscape:cy="53.281582"
     inkscape:window-x="-9"
     inkscape:window-y="-9"
     inkscape:window-maximized="1"
     inkscape:current-layer="svg3725"
     showguides="false" />
  <metadata
     id="metadata3715">
Created by potrace 1.14, written by Peter Selinger 2001-2017
<rdf:RDF>
  <cc:Work
     rdf:about="">
    <dc:format>image/svg+xml</dc:format>
    <dc:type
       rdf:resource="http://purl.org/dc/dcmitype/StillImage" />
    <dc:title></dc:title>
  </cc:Work>
</rdf:RDF>
</metadata>
  <path
     style="fill:#b3b3b3;stroke-width:0.2970297"
     d=""
     id="path3739"
     inkscape:connector-curvature="0" />
  <path
     style="fill:#b3b3b3;stroke-width:0.2970297"
     d=""
     id="path3741"
     inkscape:connector-curvature="0" />
  <path
     style="fill:#ab37c8;stroke-width:0.16904794"
     d="m 21.35075,88.847041 c -0.30217,-0.0375 -0.54918,-0.12041 -0.5489,-0.18425 2.7e-4,-0.0639 0.58983,-0.39385 1.31012,-0.73334 1.48544,-0.70012 2.95831,-1.99748 3.36049,-2.96003 0.51744,-1.2384 0.58716,-4.89725 0.52136,-27.35848 -0.0588,-20.05684 -0.0941,-22.4566 -0.34927,-23.72059 -0.49596,-2.45672 -0.95229,-3.03502 -3.28244,-4.1598 -0.75619,-0.36503 -1.33981,-0.72046 -1.29692,-0.78986 1.83906,-1.0153 11.75145,-3.16072 11.45717,-1.11309 0.13448,0.78871 0.42808,15.06089 0.61401,29.84769 0.0893,7.1016 -0.0209,12.28291 0.25047,12.76312 0.14616,0.14008 1.96038,-1.54694 4.96851,-5.1008 4.69337,-5.54482 6.45081,-8.28474 6.45081,-10.05708 0,-0.80647 -0.0504,-0.90772 -0.82255,-1.65196 -0.62253,-0.60003 -1.22507,-1.18228 -2.10585,-1.46432 -1.73675,-0.55614 1.11309,-0.66954 5.90787,-0.63782 9.58629,-0.01 8.64073,-0.23421 6.79817,0.71755 -0.21743,0.12363 -2.3739,0.84975 -3.5259,1.5512 -1.51864,0.9158 -1.39348,0.59316 -4.2295,3.50169 -1.95141,2.00131 -6.11253,6.73041 -6.71013,7.62604 -0.23873,0.35779 -0.21473,0.42983 0.39423,1.18334 4.43349,5.48581 11.30172,13.30929 14.51804,16.53723 2.97664,2.9874 4.41138,4.09831 6.38017,4.94007 0.95342,0.40764 1.26657,0.45375 3.08954,0.45483 2.36883,0.001 2.96235,-0.22042 4.32065,-1.61494 1.16532,-1.19639 1.33587,-1.84209 1.56012,-5.90648 0.2921,-5.29405 0.27551,-44.26177 -0.0197,-46.15008 -0.40224,-2.57336 -0.97648,-3.34078 -3.41867,-4.56869 -0.739,-0.37156 -1.34364,-0.74321 -1.34364,-0.82587 1.88467,-1.73163 11.61157,-3.01495 11.35165,-0.96592 0.0669,0.45322 0.20702,7.0695 0.31141,14.70283 0.10439,7.63333 0.22159,13.91058 0.26045,13.94944 0.0389,0.0389 0.49918,-0.30152 1.02296,-0.75639 4.83595,-5.43982 10.10647,-6.42201 16.12977,-4.31564 3.67882,1.3086 6.09277,3.40168 6.8296,5.92176 0.3511,1.20081 0.5606,4.70019 0.78034,13.03473 0.23509,8.91644 0.42343,12.74796 0.67481,13.72788 0.2643,1.03029 2.31426,2.40248 4.5585,3.76554 0.6532,0.42956 1.01472,0.76881 0.058,0.79629 -0.81208,0.14729 -15.37899,0.17101 -16.57805,0.027 -1.73196,-0.0863 0.0686,-0.74507 0.59772,-0.98927 1.73114,-0.7954 2.61136,-1.53045 3.18255,-2.65765 0.66896,-1.32013 0.78628,-4.10562 0.68907,-16.36024 -0.0897,-11.31311 -0.13562,-12.0021 -0.88518,-13.29295 -5.25171,-6.61902 -13.03811,-2.50987 -15.2173,1.31244 -0.24465,0.48279 -0.62015,1.5692 -0.83444,2.41426 -0.72855,2.87292 -0.84494,4.92435 -0.84494,14.89126 0,8.39217 0.0289,9.39111 0.29701,10.25751 0.35606,1.15061 0.98725,1.75029 3.29984,3.13508 2.55861,1.26228 1.37723,1.15834 -0.43317,1.28811 -2.7148,0.13846 -31.97753,0.13791 -34.24888,-0.006 -0.95064,0.0107 -2.08158,0.25804 -0.52677,-0.70483 1.48189,-0.82986 1.94448,-1.31621 1.94191,-2.0416 -0.005,-1.50697 -3.00433,-5.71101 -8.22674,-11.5325 -2.64527,-2.94872 -3.83816,-4.03054 -4.44433,-4.03054 -1.72791,0 -2.69419,4.60395 -2.23989,10.67229 0.28712,3.83514 1.37664,5.19307 4.0084,6.49847 0.65698,0.25331 2.43708,0.86355 1.00663,1.11749 -0.69016,0.12252 -15.79449,0.13665 -16.76924,0.0157 z"
     id="path3751"
     inkscape:connector-curvature="0"
     sodipodi:nodetypes="ccscsssccscssccccccccscccsccccsccccsscccccsccssccccccssscccc" />
  <path
     style="fill:#0000d4;stroke-width:0.16904794"
     d="m 16.92389,106.2892 c -2.25728,-0.48971 -4.09501,-1.27574 -5.377,-2.29983 C 9.89706,102.67145 7.96836,99.531221 7.35907,97.170961 7.00029,95.781121 6.80995,90.615621 6.58966,76.290731 6.48886,69.735901 6.3433,62.885791 6.26619,61.068281 6.13386,57.949081 6.1002,57.712781 5.66606,56.856051 4.99342,55.528661 3.72201,54.283281 1.745764,53.016001 0.785594,52.400291 0,51.839391 0,51.769541 c 0,-0.0698 0.754236,-0.59048 1.67608,-1.15697 3.0793,-1.8923 3.99918,-3.02724 4.40736,-5.43774 0.1013,-0.59825 0.25433,-4.51095 0.34006,-8.69488 0.38775,-18.923264 0.74204,-25.121059 1.58964,-27.8083866 1.22449,-3.882265 4.00615,-6.683679 7.63512,-7.68935497 1.21947,-0.337945 5.71701,-0.560643 5.88346,-0.291323 0.13169,0.213086 -0.4335,0.62521497 -1.92216,1.40160897 -1.42643,0.743939 -3.61845,2.916767 -4.33488,4.296921 -1.05729,2.036807 -1.16336,3.382682 -1.49884,19.0178946 -0.24995,11.64886 -0.41669,15.42828 -0.76171,17.26504 -0.65443,3.48391 -2.05275,5.74516 -4.48844,7.25837 -2.05447,1.27636 -2.51671,1.60157 -2.50663,1.76354 0.006,0.093 0.57467,0.54669 1.26419,1.00825 2.51164,1.68129 4.31093,3.82902 5.18957,6.19458 0.69797,1.87913 0.89604,4.98709 1.30778,20.52103 0.30074,11.34626 0.54633,17.31326 0.75129,18.25388 0.0814,0.37372 0.23456,1.11177 0.34029,1.64012 0.38111,1.904499 2.40118,4.230049 4.83442,5.565489 0.69092,0.3792 1.42719,0.82871 1.63614,0.9989 l 0.37992,0.30944 -0.47589,0.18218 c -0.65042,0.249 -3.00989,0.20591 -4.32288,-0.0789 z"
     id="path3771"
     inkscape:connector-curvature="0" />
  <path
     style="fill:#e6e6e6;stroke-width:0.2970297"
     d=""
     id="path3775"
     inkscape:connector-curvature="0" />
  <path
     style="fill:#0000d4;stroke-width:0.16743426"
     d="m 111.36517,105.71816 c 2.21439,-0.48971 4.01721,-1.27574 5.27484,-2.29983 1.61847,-1.31793 3.51053,-4.458149 4.10824,-6.818419 0.35197,-1.38983 0.53869,-6.55533 0.75479,-20.88022 0.0989,-6.55483 0.24168,-13.40494 0.31732,-15.22245 0.12982,-3.1192 0.16285,-3.35551 0.58873,-4.21223 0.65987,-1.32739 1.90711,-2.57277 3.84581,-3.84005 0.94193,-0.61571 1.7126,-1.17661 1.7126,-1.24646 0,-0.0698 -0.73991,-0.59048 -1.64423,-1.15697 -3.02079,-1.8923 -3.9232,-3.02724 -4.32362,-5.43774 -0.0994,-0.59825 -0.2495,-4.51095 -0.3336,-8.69489 -0.38039,-18.923256 -0.72795,-25.121049 -1.55944,-27.8083806 -1.20122,-3.882261 -3.93003,-6.683675 -7.49005,-7.68935197 -1.1963,-0.337949 -5.60838,-0.560643 -5.77167,-0.291326 -0.12919,0.213088 0.42526,0.625216 1.88564,1.40160897 1.39933,0.743942 3.5497,2.91677 4.25251,4.296923 1.0372,2.036807 1.14126,3.382681 1.47036,19.0178966 0.2452,11.64886 0.40878,15.42827 0.74724,17.26504 0.642,3.48391 2.01375,5.74516 4.40316,7.25837 2.01544,1.27636 2.46889,1.60157 2.459,1.76354 -0.006,0.093 -0.56375,0.54669 -1.24017,1.00825 -2.46392,1.68129 -4.22901,3.82902 -5.09096,6.19457 -0.68471,1.87914 -0.87902,4.9871 -1.28293,20.52103 -0.29503,11.34627 -0.53595,17.31327 -0.73702,18.25389 -0.0799,0.37372 -0.23011,1.11177 -0.33382,1.64011 -0.37388,1.904509 -2.35556,4.230059 -4.74256,5.565499 -0.6778,0.3792 -1.40008,0.82871 -1.60506,0.9989 l -0.3727,0.30944 0.46685,0.18218 c 0.63806,0.249 2.9527,0.20591 4.24074,-0.0789 z"
     id="path3771-0"
     inkscape:connector-curvature="0" />
</svg>
